<svg id="Layer_1" data-name="Layer 1" xmlns="http://www.w3.org/2000/svg" viewBox="0 0 175.5 187.9"><defs><style>.cls-1{fill:#150200;}.cls-2{fill:#af82c1;}.cls-3{fill:#6d46d1;}.cls-4{fill:#fdfdfd;}.cls-5{fill:#d26ac4;}.cls-6{fill:#151813;}.cls-7{fill:#8c6ed2;}.cls-8{fill:#242325;}.cls-9{fill:#d1d1d1;}.cls-10{fill:#6c466a;}.cls-11{fill:#dd6ece;}.cls-12{fill:#33dc97;}</style></defs><path class="cls-1" d="M723.94,253.68c4.45,1.59,5.75,4.88,5.68,9.4-.17,12.15.06,24.3-.13,36.45,0,3.64,1,4.9,4.76,4.89,10.76,0,12.67,2.12,12.67,13,0,6.16,0,12.32,0,18.48,0,1.77.17,2.87,2.39,3.54,15.79,4.77,21.12,12,21.33,29.17.17,13.48,0,27,0,40.44,0,7.33-.12,14.66.05,22,.11,5.13-1.8,8.68-6.76,10.37a1.13,1.13,0,0,0-.94.21c-1.49-.1-3-.27-4.47-.27q-75.56,0-151.1,0c-1.49,0-3,.17-4.47.27a1.13,1.13,0,0,0-.94-.21c-5-1.69-6.78-5.25-6.76-10.38.08-19-.08-38,0-56.94,0-8.09,1.09-16,5.73-22.92A23.66,23.66,0,0,1,614.76,341c3.7-1,4.52-2.87,4.39-6.35-.25-6.81-.12-13.65-.06-20.48.06-7,3.08-10,10.09-10.06,7.26-.1,7.26-.1,7.26-7.58,0-11.16.12-22.32-.06-33.47-.07-4.52,1.23-7.81,5.68-9.4Zm.42,84.52c2.08-1.09,1.62-3.08,1.62-4.84q0-33.83,0-67.64c0-1.76.48-3.75-1.6-4.85-1-2.63-3.31-1.76-5.16-1.76-24.15,0-48.29.07-72.44-.12-4,0-5,1.12-5,5.05q.27,35,0,69.93c0,3.85.87,5,4.88,5,24.48-.17,49,0,73.43,0C721.53,338.91,723.11,339.47,724.36,338.2Zm-41.74,96.73H759c2.54,0,5.08.35,5.06-3.58-.13-22.31.25-44.62-.35-66.91-.33-12.6-6.81-18.39-19.31-18.71-38.94-1-77.89-.58-116.83-.48-16.6,0-25.27,8.8-25.55,25.42-.33,19.47.05,38.95-.18,58.42-.06,4.55,1.18,6,5.85,5.94C632.68,434.81,657.65,434.93,682.62,434.93Zm-46.23-110.4c0-3.32-.23-6.67.06-10s-1.05-4.3-4-3.75c-2.61.5-6.88-2-6.83,3.65.06,7,.2,14,0,20.94-.18,4.72,3,3.41,5.37,3.34s5.75,1.61,5.45-3.24C636.21,331.86,636.39,328.19,636.39,324.53Zm103.93,1h0c0-3.82.27-7.67-.06-11.46-.46-5.35-4.8-2.38-7.4-3s-3.37.77-3.29,3.35c.18,6.48.31,13,0,19.44-.22,4.06.88,5.34,5.11,5.33s6.43-.91,5.76-5.68A57.23,57.23,0,0,1,740.32,325.5Z" transform="translate(-595.22 -253.68)"/><path class="cls-2" d="M602,441.37a1.13,1.13,0,0,1,.94.21" transform="translate(-595.22 -253.68)"/><path class="cls-2" d="M763,441.58a1.13,1.13,0,0,1,.94-.21" transform="translate(-595.22 -253.68)"/><path class="cls-3" d="M682.62,434.93c-25,0-49.94-.12-74.91.1-4.67,0-5.91-1.39-5.85-5.94.23-19.47-.15-38.95.18-58.42.28-16.62,9-25.38,25.55-25.42,38.94-.1,77.89-.49,116.83.48,12.5.32,19,6.11,19.31,18.71.6,22.29.22,44.6.35,66.91,0,3.93-2.52,3.58-5.06,3.58h-76.4Zm.29-23.95c18,0,36,0,53.94,0,6.88,0,10-3.23,10.06-10.13q.06-5,0-10c-.06-7.06-2.93-9.94-10-10q-52.15-.28-104.3-.53a42.29,42.29,0,0,0-6,.34c-4.86.69-7.3,3.72-7.5,8.49-.16,3.65,0,7.32,0,11C619.11,408,622,411,630,411Q656.44,411,682.91,411ZM607,404c0,7.47,0,14.94,0,22.41,0,2.78.68,5.13,3.8,5.45a46.76,46.76,0,0,0,8.45,0,3.63,3.63,0,0,0,3.64-3.94c-.06-2.41-1.85-3.1-3.82-2.85-4.37.55-5.23-1.53-5.17-5.45.21-12.45.07-24.91.08-37.36,0-2.68-.64-5.55-3.59-5.68-3.37-.15-3.38,2.95-3.38,5.51Zm142.62-38.91a9.69,9.69,0,0,0-9.57-8.95,9.37,9.37,0,0,0,.31,18.74A9.82,9.82,0,0,0,749.63,365.05Zm-139.69-5.69c-2.5.82-3,2.77-2.92,5.11.08,2.15,1,3.68,3.3,3.4a3.7,3.7,0,0,0,3.5-4.54A4.25,4.25,0,0,0,609.94,359.36Z" transform="translate(-595.22 -253.68)"/><path class="cls-4" d="M724.36,338.2c-1.25,1.27-2.83.71-4.27.71-24.48,0-49-.15-73.43,0-4,0-4.91-1.11-4.88-5q.27-35,0-69.93c0-3.93,1-5.08,5-5.05,24.15.19,48.29.08,72.44.12,1.85,0,4.14-.87,5.16,1.76Q724.37,299.54,724.36,338.2Zm-76.27-54.67c0-4.81,0-9.63,0-14.44,0-1.7-.07-3.65-2.27-3.79-2.57-.17-2.75,1.89-2.75,3.8q0,14.43,0,28.88c0,1.91.2,4,2.76,3.79,2.2-.15,2.25-2.1,2.26-3.8C648.1,293.16,648.09,288.35,648.09,283.53Zm0,35.14c0-2.49,0-5,0-7.47,0-1.42-.52-2.71-2.14-2.9a2.32,2.32,0,0,0-2.56,2.47c-.19,5-.21,9.94-.12,14.91A2.35,2.35,0,0,0,646,328c1.78-.08,2.06-1.39,2.09-2.8C648.1,323,648.07,320.83,648.06,318.67Z" transform="translate(-595.22 -253.68)"/><path class="cls-5" d="M636.39,324.53c0,3.66-.18,7.33.05,11,.3,4.85-3.21,3.16-5.45,3.24s-5.55,1.38-5.37-3.34c.25-7,.11-14,0-20.94,0-5.67,4.22-3.15,6.83-3.65,2.9-.55,4.24.52,4,3.75S636.39,321.21,636.39,324.53Z" transform="translate(-595.22 -253.68)"/><path class="cls-5" d="M740.32,325.5a57.23,57.23,0,0,0,.07,8c.67,4.77-1.39,5.68-5.76,5.68s-5.33-1.27-5.11-5.33c.34-6.46.21-13,0-19.44-.08-2.58.69-4,3.29-3.35s6.94-2.34,7.4,3c.33,3.79.06,7.64.06,11.46Z" transform="translate(-595.22 -253.68)"/><path class="cls-6" d="M724.36,338.2q0-38.65,0-77.33c2.08,1.1,1.6,3.09,1.6,4.85q0,33.82,0,67.64C726,335.12,726.44,337.11,724.36,338.2Z" transform="translate(-595.22 -253.68)"/><path class="cls-1" d="M682.91,411q-26.48,0-52.95,0c-7.92,0-10.85-3-10.88-10.83,0-3.66-.12-7.33,0-11,.2-4.77,2.64-7.8,7.5-8.49a42.29,42.29,0,0,1,6-.34q52.15.24,104.3.53c7.1,0,10,2.92,10,10q.06,5,0,10c-.06,6.9-3.18,10.11-10.06,10.13C718.87,411,700.89,411,682.91,411Zm-56-6.77c1.3,1.09,2.85.71,4.31.71q51.79,0,103.58,0c1.46,0,3,.38,4.31-.71L740,403a60.15,60.15,0,0,0,.07-14c-.32-1.81-1.69-1.76-3-1.76l-24,.08c-8.13-.1-16.25-.29-24.37-.27-20.55,0-41.1.17-61.65.27-1,.19-1.15.86-1,1.7a62.84,62.84,0,0,0,.09,14Z" transform="translate(-595.22 -253.68)"/><path class="cls-7" d="M607,404V382.05c0-2.56,0-5.66,3.38-5.51,3,.13,3.59,3,3.59,5.68,0,12.45.13,24.91-.08,37.36-.06,3.92.8,6,5.17,5.45,2-.25,3.76.44,3.82,2.85a3.63,3.63,0,0,1-3.64,3.94,46.76,46.76,0,0,1-8.45,0c-3.12-.32-3.82-2.67-3.8-5.45C607,418.9,607,411.43,607,404Z" transform="translate(-595.22 -253.68)"/><path class="cls-8" d="M749.63,365.05a9.82,9.82,0,0,1-9.26,9.79,9.37,9.37,0,0,1-.31-18.74A9.69,9.69,0,0,1,749.63,365.05Zm-15,.52c.21,3.77,2.46,5.49,5.84,5.43,3.63-.06,5.41-2.6,5.26-5.93a5.05,5.05,0,0,0-5.59-5.11C736.69,360.06,734.75,362,734.67,365.57Z" transform="translate(-595.22 -253.68)"/><path class="cls-7" d="M609.94,359.36a4.25,4.25,0,0,1,3.88,4,3.7,3.7,0,0,1-3.5,4.54c-2.3.28-3.22-1.25-3.3-3.4C606.93,362.13,607.44,360.18,609.94,359.36Z" transform="translate(-595.22 -253.68)"/><path class="cls-9" d="M648.09,283.53c0,4.82,0,9.63,0,14.44,0,1.7-.06,3.65-2.26,3.8-2.56.18-2.76-1.88-2.76-3.79q0-14.44,0-28.88c0-1.91.18-4,2.75-3.8,2.2.14,2.26,2.09,2.27,3.79C648.1,273.9,648.09,278.72,648.09,283.53Z" transform="translate(-595.22 -253.68)"/><path class="cls-9" d="M648.07,318.67c0,2.16,0,4.32,0,6.48,0,1.41-.31,2.72-2.09,2.8a2.35,2.35,0,0,1-2.75-2.27c-.09-5-.07-9.95.12-14.91a2.32,2.32,0,0,1,2.56-2.47c1.62.19,2.11,1.48,2.14,2.9C648.1,313.69,648.06,316.18,648.07,318.67Z" transform="translate(-595.22 -253.68)"/><path class="cls-5" d="M627,387.32c20.55-.1,41.1-.23,61.65-.27,8.12,0,16.24.17,24.37.27.85,2.49,3,1.62,4.65,1.64,7.45.08,14.9,0,22.36,0a60.15,60.15,0,0,1-.07,14l-1.94.92H628L626,403a62.84,62.84,0,0,1-.09-14Z" transform="translate(-595.22 -253.68)"/><path class="cls-10" d="M628,403.92H738l1.08.29c-1.3,1.09-2.85.71-4.31.71q-51.79,0-103.58,0c-1.46,0-3,.38-4.31-.71Z" transform="translate(-595.22 -253.68)"/><path class="cls-11" d="M740,389c-7.46,0-14.91,0-22.36,0-1.66,0-3.8.85-4.65-1.64l24-.08C738.34,387.24,739.71,387.19,740,389Z" transform="translate(-595.22 -253.68)"/><path class="cls-11" d="M627,387.32l-1,1.7C625.85,388.18,626.05,387.51,627,387.32Z" transform="translate(-595.22 -253.68)"/><path class="cls-11" d="M628,403.92l-1.08.29L626,403Z" transform="translate(-595.22 -253.68)"/><path class="cls-11" d="M739.1,404.21l-1.08-.29L740,403Z" transform="translate(-595.22 -253.68)"/><path class="cls-12" d="M734.67,365.57c.08-3.53,2-5.51,5.51-5.61a5.05,5.05,0,0,1,5.59,5.11c.15,3.33-1.63,5.87-5.26,5.93C737.13,371.06,734.88,369.34,734.67,365.57Z" transform="translate(-595.22 -253.68)"/></svg>